<svg version="1.1" x="0px" y="0px" viewBox="0 0 136 16" style="enable-background:new 0 0 136 16;" xml:space="preserve">
  <g>
    <path class="fill" d="M4,4.3H1.3C0.4,4.3,0,3.8,0,3V2c0-0.8,0.4-1.3,1.3-1.3h9.6c0.8,0,1.3,0.4,1.3,1.3v1c0,0.8-0.4,1.3-1.3,1.3H8.1v9.3c0,0.8-0.4,1.3-1.3,1.3H5.3c-0.8,0-1.3-0.4-1.3-1.3V4.3z"/>
    <path class="fill" d="M21.1,6.9c1,0,1.5-0.4,1.5-1.5c0-0.4-0.1-0.8-0.6-1c-0.3-0.1-0.6-0.2-1.1-0.2h-0.6v2.7H21.1zM16.1,2c0-0.8,0.4-1.3,1.3-1.3h3.8c1.3,0,2.2,0.1,2.8,0.3c1.6,0.5,2.8,2.2,2.8,4.2c0,1.4-0.6,3.1-2,3.9v0c0,0,0.3,0.4,0.6,0.9l1.8,3.1c0.5,1,0.1,1.5-0.9,1.5h-1.8c-0.6,0-1.2-0.2-1.5-0.9l-1.8-3.4h-1v3.1c0,0.8-0.4,1.3-1.3,1.3h-1.6c-0.8,0-1.3-0.4-1.3-1.3V2z"/>
    <path class="fill" d="M38.5,9.1l-0.4-2c-0.3-1-0.6-2.6-0.6-2.6h0c0,0-0.3,1.6-0.6,2.6l-0.5,2H38.5z M35,1.8c0.2-0.7,0.7-1,1.4-1h2.1c0.7,0,1.2,0.3,1.4,1l3.8,11.6c0.3,0.9-0.1,1.5-1,1.5h-1.6c-0.8,0-1.2-0.4-1.4-1.1l-0.3-1.4h-4l-0.3,1.4c-0.2,0.7-0.7,1.1-1.4,1.1h-1.6c-0.9,0-1.3-0.6-1-1.5L35,1.8z"/>
    <path class="fill" d="M47.7,2c0-0.8,0.4-1.3,1.3-1.3h1.6c0.8,0,1.3,0.4,1.3,1.3v11.5c0,0.8-0.4,1.3-1.3,1.3H49c-0.8,0-1.3-0.4-1.3-1.3V2z"/>
    <path class="fill" d="M56.9,2c0-0.8,0.4-1.3,1.3-1.3h1.9c0.7,0,1.2,0.3,1.5,0.9l2.3,4.5c0.6,1,1.2,2.6,1.2,2.6h0c0,0-0.2-1.6-0.2-2.6V2c0-0.8,0.4-1.3,1.3-1.3h1.6c0.8,0,1.3,0.4,1.3,1.3v11.5c0,0.8-0.4,1.3-1.3,1.3h-1.9c-0.7,0-1.2-0.3-1.5-0.9l-2.3-4.5c-0.6-1-1.2-2.6-1.2-2.6h0c0,0,0.2,1.6,0.2,2.6v4.1c0,0.8-0.4,1.3-1.3,1.3h-1.6c-0.8,0-1.3-0.4-1.3-1.3V2z"/>
    <path class="fill" d="M74.2,2c0-0.8,0.4-1.3,1.3-1.3H77c0.8,0,1.3,0.4,1.3,1.3v4.1h4.1V2c0-0.8,0.4-1.3,1.3-1.3h1.6c0.8,0,1.3,0.4,1.3,1.3v11.5c0,0.8-0.4,1.3-1.3,1.3h-1.6c-0.8,0-1.3-0.4-1.3-1.3V9.6h-4.1v3.9c0,0.8-0.4,1.3-1.3,1.3h-1.6c-0.8,0-1.3-0.4-1.3-1.3V2z"/>
    <path class="fill" d="M98.3,9.1l-0.4-2c-0.3-1-0.6-2.6-0.6-2.6h0c0,0-0.3,1.6-0.6,2.6l-0.5,2H98.3z M94.7,1.8c0.2-0.7,0.7-1,1.4-1h2.1c0.7,0,1.2,0.3,1.4,1l3.8,11.6c0.3,0.9-0.1,1.5-1,1.5H101c-0.8,0-1.2-0.4-1.4-1.1l-0.3-1.4h-4L95,13.7c-0.2,0.7-0.7,1.1-1.4,1.1H92c-0.9,0-1.3-0.6-1-1.5L94.7,1.8z"/>
    <path class="fill" d="M114.4,0.7c2.1,0,3.5,0.7,4.4,1.3c0.6,0.5,0.7,1.1,0.3,1.8l-0.6,1c-0.4,0.7-1,0.8-1.7,0.4c-0.7-0.4-1.4-0.6-2.2-0.6c-2.6,0-3.4,1.8-3.4,3.4c0,1.7,0.9,3.6,3.4,3.6c0.9,0,1.8-0.4,2.4-0.8c0.7-0.5,1.3-0.5,1.8,0.3l0.7,0.9c0.4,0.6,0.4,1.3-0.2,1.8c-1,0.7-2.6,1.6-4.9,1.6c-4.6,0-7.5-3.1-7.5-7.3C106.9,3.9,110,0.7,114.4,0.7"/>
    <path class="fill" d="M124.2,2c0-0.8,0.4-1.3,1.3-1.3h1.6c0.8,0,1.3,0.4,1.3,1.3v3.9h1.1l2.1-4.3c0.4-0.6,0.8-0.9,1.5-0.9h1.6c1,0,1.4,0.6,0.9,1.5l-2.8,5.2v0l3,5.7c0.5,0.9,0.1,1.5-0.9,1.5h-1.8c-0.7,0-1.2-0.3-1.5-0.9l-2.1-4.4h-1.1v4.1c0,0.8-0.4,1.3-1.3,1.3h-1.6c-0.8,0-1.3-0.4-1.3-1.3V2z"/>
  </g>
</svg>
